<?xml version="1.0" encoding="utf-8"?><svg xmlns="http://www.w3.org/2000/svg" xmlns:xlink="http://www.w3.org/1999/xlink" width="1093" height="649" preserveAspectRatio="xMidYMid" viewBox="0 0 1093 649" style="z-index:1;margin-right:-2px;display:block;background-repeat-y:initial;background-repeat-x:initial;background-color:rgb(221, 221, 221);animation-play-state:paused" ><g transform="" style="animation-play-state:paused" ><g transform="translate(862.8996736887336,109.47500380266746) scale(100)" opacity="0.66" style="transform:matrix(100, 0, 0, 100, 862.9, 109.475);opacity:0.66;animation-play-state:paused" ><path d="M3.8254999999999995 0 C3.8254999999999995 0.6120800000000001 3.1378429100577994 2.2722310728004746 2.7050369914291372 2.705036991429137 S0.6120800000000003 3.8254999999999995 2.3424431650690996e-16 3.8254999999999995 S-2.2722310728004746 3.1378429100577994 -2.705036991429137 2.7050369914291372 S-3.8254999999999995 0.6120800000000005 -3.8254999999999995 4.684886330138199e-16 S-3.1378429100578 -2.2722310728004746 -2.7050369914291377 -2.705036991429137 S-0.6120800000000007 -3.8254999999999995 -7.027329495207298e-16 -3.8254999999999995 S2.272231072800474 -3.1378429100578 2.7050369914291363 -2.7050369914291377 S3.8254999999999995 -0.612080000000001 3.8254999999999995 -9.369772660276398e-16" fill="#1b56d0" stroke-width="0" transform="matrix(1,0,0,1,0,0)" style="transform:matrix(1, 0, 0, 1, 0, 0);animation-play-state:paused" ></path></g>
<g transform="translate(926.1796084264803,66.47000456320097) scale(100)" opacity="0.66" style="transform:matrix(100, 0, 0, 100, 926.18, 66.47);opacity:0.66;animation-play-state:paused" ><path d="M4.590599999999999 0 C4.590599999999999 0.734496 3.765411492069359 2.7266772873605696 3.2460443897149647 3.2460443897149642 S0.7344960000000004 4.590599999999999 2.8109317980829193e-16 4.590599999999999 S-2.7266772873605696 3.765411492069359 -3.2460443897149642 3.2460443897149647 S-4.590599999999999 0.7344960000000006 -4.590599999999999 5.621863596165839e-16 S-3.7654114920693598 -2.7266772873605696 -3.246044389714965 -3.2460443897149642 S-0.7344960000000009 -4.590599999999999 -8.432795394248758e-16 -4.590599999999999 S2.726677287360569 -3.7654114920693593 3.246044389714964 -3.246044389714965 S4.590599999999999 -0.7344960000000011 4.590599999999999 -1.1243727192331677e-15" fill="#1b56d0" stroke-width="0" transform="matrix(1,0,0,1,0,0)" style="transform:matrix(1, 0, 0, 1, 0, 0);animation-play-state:paused" ></path></g>
<g transform="translate(1078.0514517970723,-36.74199361151864) scale(100)" opacity="0.66" style="transform:matrix(100, 0, 0, 100, 1078.05, -36.742);opacity:0.66;animation-play-state:paused" ><path d="M6.4268399999999986 0 C6.4268399999999986 1.0282944 5.271576088897103 3.817348202304797 4.54446214560095 4.544462145600949 S1.0282944000000005 6.4268399999999986 3.935304517316087e-16 6.4268399999999986 S-3.817348202304797 5.271576088897103 -4.544462145600949 4.54446214560095 S-6.4268399999999986 1.028294400000001 -6.4268399999999986 7.870609034632174e-16 S-5.2715760888971035 -3.817348202304797 -4.544462145600951 -4.544462145600949 S-1.0282944000000012 -6.4268399999999986 -1.180591355194826e-15 -6.4268399999999986 S3.817348202304797 -5.2715760888971035 4.544462145600949 -4.544462145600951 S6.4268399999999986 -1.0282944000000016 6.4268399999999986 -1.5741218069264347e-15" fill="#1b56d0" stroke-width="0" transform="matrix(1,0,0,1,0,0)" style="transform:matrix(1, 0, 0, 1, 0, 0);animation-play-state:paused" ></path></g></g></svg>