<svg xmlns="http://www.w3.org/2000/svg" xmlns:xlink="http://www.w3.org/1999/xlink" style="margin:auto;background:#ffffff;display:block;z-index:1;position:relative" preserveAspectRatio="xMidYMid" viewBox="0 0 1127 640"><g transform=""><g transform="translate(875.1766446315911,78.23881268658349) scale(100)" opacity="0.4"><path d="M3.8261649999999996 0 C3.8261649999999996 0.9072349999999999 3.97213582138455 1.2457289427976241 3.51851832138455 2.0314174999999994 S2.698771057202375 2.859938589070886 1.9130825000000002 3.313556089070886 S0.9072350000000001 4.062835 2.4877689391069184e-16 4.062835 S-1.1273939427976236 3.767173589070886 -1.913082499999999 3.3135560890708864 S-3.0649008213845486 2.817106057202376 -3.518518321384549 2.031417500000001 S-3.8261649999999996 0.9072350000000003 -3.8261649999999996 4.685700720259633e-16 S-3.97213582138455 -1.2457289427976233 -3.5185183213845503 -2.0314174999999985 S-2.6987710572023764 -2.8599385890708855 -1.9130825000000016 -3.313556089070886 S-0.9072350000000007 -4.062835 -7.463306817320754e-16 -4.062835 S1.1273939427976218 -3.767173589070887 1.9130824999999974 -3.3135560890708877 S3.064900821384548 -2.8171060572023765 3.5185183213845486 -2.0314175000000017 S3.826164999999999 -0.9072350000000008 3.8261649999999996 -9.371401440519265e-16" fill="currentColor" stroke-width="0"><animateTransform attributeName="transform" type="rotate" dur="10s" repeatCount="indefinite" values="0;60"/></path></g><g transform="translate(937.5119735579093,29.886575223900195) scale(100)" opacity="0.4"><path d="M4.591398 0 C4.591398 1.088682 4.7665629856614595 1.4948747313571489 4.222221985661459 2.4377009999999992 S3.2385252686428503 3.4319263068850634 2.2956990000000004 3.9762673068850636 S1.0886820000000001 4.875401999999999 2.9853227269283017e-16 4.875401999999999 S-1.3528727313571487 4.520608306885064 -2.295698999999999 3.976267306885064 S-3.6778809856614583 3.3805272686428514 -4.2222219856614585 2.4377010000000015 S-4.591398 1.0886820000000006 -4.591398 5.622840864311559e-16 S-4.7665629856614595 -1.494874731357148 -4.22222198566146 -2.4377009999999983 S-3.238525268642852 -3.431926306885063 -2.295699000000002 -3.976267306885063 S-1.0886820000000008 -4.875401999999999 -8.955968180784904e-16 -4.875401999999999 S1.3528727313571463 -4.520608306885065 2.295698999999997 -3.976267306885066 S3.6778809856614574 -3.380527268642852 4.222221985661458 -2.437701000000002 S4.591398 -1.088682000000001 4.591398 -1.1245681728623118e-15" fill="currentColor" stroke-width="0"><animateTransform attributeName="transform" type="rotate" dur="5s" repeatCount="indefinite" values="0;60"/></path></g><g transform="translate(1087.116762981073,-86.15879468653975) scale(100)" opacity="0.4"><path d="M6.427957199999999 0 C6.427957199999999 1.5241547999999996 6.6731881799260435 2.0928246239000092 5.911110779926044 3.412781399999999 S4.53393537609999 4.804696829639089 3.2139786000000004 5.566774229639089 S1.5241548 6.825562799999999 4.1794518176996223e-16 6.825562799999999 S-1.8940218239000082 6.328851629639088 -3.213978599999998 5.566774229639089 S-5.149033379926042 4.732738176099992 -5.911110779926042 3.412781400000002 S-6.427957199999999 1.5241548000000005 -6.427957199999999 7.871977210036182e-16 S-6.6731881799260435 -2.0928246239000075 -5.9111107799260445 -3.412781399999998 S-4.533935376099992 -4.804696829639087 -3.213978600000002 -5.566774229639088 S-1.524154800000001 -6.825562799999999 -1.2538355453098867e-15 -6.825562799999999 S1.8940218239000044 -6.32885162963909 3.213978599999995 -5.566774229639091 S5.14903337992604 -4.732738176099993 5.911110779926041 -3.4127814000000027 S6.427957199999999 -1.5241548000000011 6.427957199999999 -1.5743954420072364e-15" fill="currentColor" stroke-width="0"><animateTransform attributeName="transform" type="rotate" dur="3.333333333333333s" repeatCount="indefinite" values="0;60"/></path></g></g></svg>